<svg xmlns="http://www.w3.org/2000/svg" fill-rule="evenodd" viewBox="0 0 100 100">
    <path d="M59.52 47.37a9.43 9.43 0 0 0 3-6.87 9.55 9.55 0 0 0-9.6-9.5H36a1.5 1.5 0 0 0 0 3h4.5v31H36a1.5 1.5 0 0 0 0 3h20.89a10.47 10.47 0 0 0 2.63-20.63ZM52.92 34a6.5 6.5 0 1 1 0 13H43.5V34Zm4 31H43.5V50h10.26a1.5 1.5 0 0 0 .33 0h2.74a7.7 7.7 0 0 1 7.67 7.52A7.55 7.55 0 0 1 56.89 65Z"/>
    <path d="M94 51.5a1.5 1.5 0 0 0 0-3h-9.5v-11H94a1.5 1.5 0 0 0 0-3h-9.5V17a1.5 1.5 0 0 0-1.5-1.5H65.5V5a1.5 1.5 0 0 0-3 0v10.5h-11V5a1.5 1.5 0 0 0-3 0v10.5h-11V5a1.5 1.5 0 0 0-3 0v10.5H17a1.5 1.5 0 0 0-1.5 1.5v17.5H5a1.5 1.5 0 0 0 0 3h10.5v11H5a1.5 1.5 0 0 0 0 3h10.5v11H5a1.5 1.5 0 0 0 0 3h10.5V83a1.5 1.5 0 0 0 1.5 1.5h17.5V94a1.5 1.5 0 0 0 3 0v-9.5h11V94a1.5 1.5 0 0 0 3 0v-9.5h11V94a1.5 1.5 0 0 0 3 0v-9.5H83a1.5 1.5 0 0 0 1.5-1.5V65.5H94a1.5 1.5 0 0 0 0-3h-9.5v-11Zm-12.5 30h-63v-63h63Z"/>
</svg>
