<svg xmlns="http://www.w3.org/2000/svg" fill-rule="evenodd" viewBox="0 0 100 100">
    <path d="M64.7 35.835 33.309 60.822a1.501 1.501 0 0 0 1.868 2.348l31.391-24.987a1.501 1.501 0 0 0-1.868-2.348zm-27.569 9.472a7.739 7.739 0 0 0 5.796 1.409c4.246-.661 7.164-4.653 6.505-8.899-.661-4.247-4.655-7.165-8.899-6.504-4.247.66-7.165 4.652-6.504 8.898a7.736 7.736 0 0 0 3.102 5.096zm3.862-11.03a4.804 4.804 0 0 1 5.474 4.001 4.8 4.8 0 0 1-4.001 5.474 4.755 4.755 0 0 1-3.565-.867 4.758 4.758 0 0 1-1.908-3.134 4.8 4.8 0 0 1 4-5.474zm17.228 17.859c-4.299 0-7.797 3.497-7.797 7.795s3.498 7.794 7.797 7.794 7.796-3.497 7.796-7.794c.001-4.298-3.497-7.795-7.796-7.795zm0 12.589a4.801 4.801 0 0 1-4.797-4.794c0-2.644 2.152-4.795 4.797-4.795s4.796 2.151 4.796 4.795a4.8 4.8 0 0 1-4.796 4.794z"/>
    <path d="M88.283 41.237c-2.973-1.481-6.046-3.013-6.884-4.993-.855-2.021.321-5.237 1.458-8.347 1.544-4.224 3.142-8.591.243-11.488-2.852-2.853-7.082-1.872-11.174-.922-2.93.68-5.96 1.383-8.02.512-2.006-.85-3.646-3.437-5.232-5.939-2.247-3.545-4.793-7.563-9.153-7.563-4.368 0-6.865 4.107-9.068 7.731-1.563 2.571-3.18 5.23-5.185 6.078-2.057.87-5.122.098-8.087-.647-4.123-1.037-8.386-2.108-11.242.75-2.884 2.882-1.464 7.274-.09 11.522 1.005 3.106 2.043 6.318 1.182 8.354-.838 1.985-3.776 3.503-6.617 4.972-3.932 2.033-8.388 4.337-8.388 8.733 0 4.382 4.283 6.778 8.062 8.892 2.707 1.514 5.506 3.08 6.35 5.074.865 2.045-.041 5.188-.916 8.227-1.207 4.188-2.455 8.52.417 11.39 2.96 2.959 7.705.496 12.294-1.889 3.335-1.732 7.116-3.698 9.082-2.865 1.919.812 3.205 4.777 4.34 8.275 1.656 5.107 3.37 10.389 7.867 10.389 4.502 0 6.159-5.287 7.761-10.4 1.1-3.509 2.347-7.487 4.264-8.297 1.966-.831 5.79 1.14 9.163 2.88 4.638 2.393 9.433 4.866 12.391 1.908 2.901-2.9 1.312-7.206-.224-11.371-1.129-3.062-2.297-6.228-1.444-8.247.839-1.983 3.902-3.559 6.864-5.083 4.285-2.205 8.716-4.484 8.716-8.883-.003-4.404-4.44-6.615-8.73-8.753zm-1.361 14.969c-3.437 1.768-6.991 3.597-8.254 6.583-1.315 3.112.062 6.844 1.393 10.453 1.265 3.43 2.46 6.669.917 8.211-1.408 1.409-5.386-.642-8.894-2.452-4.152-2.142-8.445-4.356-11.707-2.977-3.196 1.351-4.601 5.831-5.958 10.164-1.278 4.079-2.6 8.297-4.898 8.297-2.317 0-3.688-4.227-5.014-8.315-1.398-4.31-2.843-8.767-6.024-10.112-.706-.299-1.458-.43-2.245-.43-2.854 0-6.164 1.72-9.389 3.395-3.46 1.799-7.384 3.837-8.79 2.43-1.62-1.619-.666-4.931.345-8.438 1.02-3.541 2.075-7.202.796-10.227-1.245-2.941-4.5-4.762-7.648-6.523-3.356-1.877-6.526-3.651-6.526-6.273 0-2.57 3.286-4.27 6.766-6.068 3.314-1.714 6.742-3.486 8.002-6.469 1.296-3.064.083-6.816-1.091-10.445-1.146-3.544-2.229-6.893-.643-8.477 1.654-1.656 4.926-.833 8.39.038 3.444.867 7.008 1.763 9.987.501 2.896-1.224 4.769-4.304 6.58-7.283C44.983 8.555 46.84 5.5 49.521 5.5c2.709 0 4.608 2.997 6.619 6.169 1.833 2.891 3.727 5.881 6.598 7.096 2.959 1.251 6.471.436 9.867-.353 3.445-.799 6.699-1.555 8.375.121 1.545 1.544.338 4.843-.939 8.336-1.336 3.656-2.719 7.436-1.403 10.546 1.27 3.001 4.848 4.785 8.309 6.509 3.633 1.811 7.065 3.521 7.065 6.068-.002 2.566-3.445 4.338-7.09 6.214z"/>
</svg>
